<?xml version="1.0" encoding="UTF-8"?>
<!DOCTYPE svg PUBLIC "-//W3C//DTD SVG 1.1//EN" "http://www.w3.org/Graphics/SVG/1.1/DTD/svg11.dtd">
<svg xmlns="http://www.w3.org/2000/svg" version="1.1" width="4162px" height="4170px" style="shape-rendering:geometricPrecision; text-rendering:geometricPrecision; image-rendering:optimizeQuality; fill-rule:evenodd; clip-rule:evenodd" xmlns:xlink="http://www.w3.org/1999/xlink">
<g><path style="opacity:0.999" fill="#00ba8e" d="M 1873.5,-0.5 C 2009.5,-0.5 2145.5,-0.5 2281.5,-0.5C 2694.72,43.4289 3062.72,194.262 3385.5,452C 3712.44,719.172 3939.94,1054.67 4068,1458.5C 4123.77,1639.82 4154.93,1825.15 4161.5,2014.5C 4161.5,2058.17 4161.5,2101.83 4161.5,2145.5C 4144.94,2569.7 4014.77,2954.37 3771,3299.5C 3524.97,3638.33 3206.47,3883.49 2815.5,4035C 2598.78,4116.68 2374.78,4161.52 2143.5,4169.5C 2099.5,4169.5 2055.5,4169.5 2011.5,4169.5C 1587.13,4152.66 1202.8,4021.49 858.5,3776C 544.034,3545.87 310.2,3251.71 157,2893.5C 71.0454,2688.02 18.5454,2474.35 -0.5,2252.5C -0.5,2137.5 -0.5,2022.5 -0.5,1907.5C 38.2843,1481.85 189.451,1102.52 453,769.5C 691.061,476.169 986.561,261.336 1339.5,125C 1512.13,59.9105 1690.13,18.0772 1873.5,-0.5 Z"/></g>
<g><path style="opacity:1" fill="#fefefe" d="M 2810.5,260.5 C 2857.51,260.137 2904.51,260.637 2951.5,262C 2987.4,262.515 3022.07,269.181 3055.5,282C 3087.75,297.26 3109.92,321.76 3122,355.5C 3126.6,367.908 3130.27,380.575 3133,393.5C 3138.16,430.243 3143.82,466.91 3150,503.5C 3168.18,589.735 3185.85,676.069 3203,762.5C 3212.16,810.255 3217.66,858.421 3219.5,907C 3220.14,932.59 3213.98,956.423 3201,978.5C 3181.09,1009.75 3156.26,1036.58 3126.5,1059C 3069.5,1102.56 3007.5,1137.89 2940.5,1165C 2905.06,1178.7 2868.39,1185.03 2830.5,1184C 2813.64,1178.64 2799.47,1169.14 2788,1155.5C 2768.82,1130.93 2752.82,1104.26 2740,1075.5C 2709.07,1002.89 2684.24,928.222 2665.5,851.5C 2490.38,839.141 2317.05,851.308 2145.5,888C 1887,947.046 1662.67,1067.38 1472.5,1249C 1394.89,1324.29 1324.72,1405.45 1262,1492.5C 1249.55,1510.4 1238.88,1529.4 1230,1549.5C 1226.74,1557.56 1224.57,1565.89 1223.5,1574.5C 1225.22,1585.06 1231.22,1592.23 1241.5,1596C 1264.14,1604.28 1287.48,1609.62 1311.5,1612C 1353.39,1616.39 1395.39,1619.05 1437.5,1620C 1532.01,1620.93 1626.51,1620.43 1721,1618.5C 1887.97,1620.34 2054.81,1626.17 2221.5,1636C 2498.57,1652.24 2775.23,1673.57 3051.5,1700C 3157.12,1711.2 3262.46,1724.54 3367.5,1740C 3437.81,1750.66 3507.48,1764.66 3576.5,1782C 3597.44,1787.4 3618.11,1793.74 3638.5,1801C 3684.07,1819.52 3718.57,1850.35 3742,1893.5C 3761.93,1932.22 3774.6,1973.22 3780,2016.5C 3790.41,2096.22 3788.07,2175.56 3773,2254.5C 3716.09,2462.45 3626.42,2654.45 3504,2830.5C 3407.15,2967.33 3295.32,3091.5 3168.5,3203C 2933.69,3405.08 2672.02,3565.75 2383.5,3685C 2092.99,3803.17 1790.82,3863 1477,3864.5C 1391.66,3865.46 1307.16,3857.62 1223.5,3841C 1145.35,3825.58 1074.01,3794.91 1009.5,3749C 928.019,3691.19 856.519,3622.69 795,3543.5C 719.82,3447.22 657.82,3342.55 609,3229.5C 567.7,3132.3 543.7,3030.97 537,2925.5C 536.333,2899.83 536.333,2874.17 537,2848.5C 538.531,2818.78 543.864,2789.78 553,2761.5C 570.229,2713.29 604.396,2691.45 655.5,2696C 688.942,2699.26 719.276,2710.59 746.5,2730C 771.628,2748.79 793.795,2770.63 813,2795.5C 863.636,2869.15 912.302,2944.15 959,3020.5C 1034.4,3119.58 1127.56,3197.08 1238.5,3253C 1345.67,3305.61 1458.34,3340.94 1576.5,3359C 1796.01,3392.94 2014.68,3388.28 2232.5,3345C 2405.2,3309.12 2566.2,3244.79 2715.5,3152C 2819.36,3086.42 2908.19,3004.25 2982,2905.5C 3056.7,2802.38 3106.7,2688.05 3132,2562.5C 3149.3,2476.6 3120.46,2411.76 3045.5,2368C 3017.65,2354.05 2988.98,2342.05 2959.5,2332C 2868.86,2301.26 2776.52,2276.92 2682.5,2259C 2519.65,2229.14 2355.65,2207.81 2190.5,2195C 2126.21,2190.04 2061.88,2185.71 1997.5,2182C 1637.41,2168.33 1277.41,2152.66 917.5,2135C 863.817,2131.33 811.484,2121 760.5,2104C 670.432,2071.59 615.599,2008.42 596,1914.5C 583.405,1854.39 579.405,1793.72 584,1732.5C 591.942,1681.01 606.942,1631.68 629,1584.5C 662.437,1514.25 701.437,1447.59 746,1384.5C 895.709,1172.75 1070.88,983.585 1271.5,817C 1665.24,496.194 2116.91,314.194 2626.5,271C 2687.9,265.904 2749.23,262.404 2810.5,260.5 Z"/></g>
</svg>
